<?xml version="1.0" standalone="no"?>
<!DOCTYPE svg PUBLIC "-//W3C//DTD SVG 20010904//EN"
 "http://www.w3.org/TR/2001/REC-SVG-20010904/DTD/svg10.dtd">
<svg version="1.0" xmlns="http://www.w3.org/2000/svg"
 width="1200.000000pt" height="675.000000pt" viewBox="0 0 1200.000000 675.000000"
 preserveAspectRatio="xMidYMid meet">

<g transform="translate(0.000000,675.000000) scale(0.100000,-0.100000)"
fill="#000000" stroke="none">
<path d="M130 6741 c0 -4 26 -16 58 -26 95 -30 263 -116 274 -140 6 -14 26
-27 51 -35 23 -7 51 -18 62 -26 11 -8 30 -14 43 -14 41 0 79 -27 85 -60 6 -26
10 -30 33 -27 15 2 43 -5 63 -15 23 -12 57 -18 98 -18 51 0 64 -3 73 -19 7
-14 6 -21 -3 -24 -7 -3 -6 -6 5 -6 9 -1 18 3 20 8 4 11 114 -5 198 -29 105
-30 140 -38 240 -55 152 -27 375 -105 430 -150 8 -6 46 -25 84 -40 44 -19 72
-37 79 -52 8 -19 18 -23 56 -23 26 0 56 -7 68 -15 11 -8 47 -18 79 -21 33 -4
76 -15 96 -25 21 -11 44 -19 53 -19 9 0 30 -7 46 -16 30 -15 138 -46 224 -64
22 -4 85 -19 140 -33 55 -13 136 -32 180 -42 44 -9 94 -21 110 -25 77 -22 245
-62 295 -70 30 -6 80 -15 110 -21 30 -5 71 -12 92 -15 31 -5 37 -10 41 -37 3
-22 -4 -49 -24 -87 -31 -62 -44 -110 -30 -110 6 0 16 9 24 20 20 28 60 40 158
46 79 4 93 2 136 -20 60 -30 86 -60 101 -111 11 -40 6 -95 -8 -95 -4 0 -16
-20 -27 -45 -10 -25 -21 -45 -25 -45 -5 0 -8 -7 -8 -15 0 -22 34 -18 92 11 43
22 67 29 110 33 11 1 54 80 84 156 48 121 102 209 195 315 31 36 69 90 84 120
31 62 62 95 130 134 56 33 94 32 198 -6 89 -33 108 -51 100 -92 -3 -17 -10
-36 -14 -42 -5 -6 -6 -44 -3 -85 4 -59 2 -86 -14 -134 -34 -100 -99 -237 -138
-290 -20 -27 -41 -59 -47 -72 -5 -12 -27 -29 -48 -37 -22 -9 -39 -22 -39 -31
0 -9 -6 -12 -15 -9 -8 4 -15 2 -15 -3 0 -6 -11 -15 -25 -21 -14 -6 -25 -18
-25 -26 0 -7 -6 -19 -14 -26 -8 -6 -12 -18 -9 -25 5 -15 -18 -45 -36 -45 -6 0
-11 -6 -11 -14 0 -8 -5 -16 -11 -18 -7 -2 -12 -30 -14 -63 -1 -33 -4 -71 -8
-85 -3 -14 -8 -65 -11 -115 -4 -70 -3 -86 6 -70 7 11 22 28 34 37 28 22 69
111 78 168 8 52 21 70 50 70 23 0 76 47 76 67 0 6 9 22 21 37 11 15 27 54 35
88 8 33 30 93 48 132 18 39 48 105 66 146 18 41 38 89 45 105 7 17 18 47 25
67 30 97 132 172 220 162 66 -8 101 -23 143 -63 l37 -35 0 -87 c0 -91 -12
-133 -51 -183 -12 -16 -24 -42 -26 -58 -2 -17 -14 -43 -28 -59 -13 -16 -27
-46 -30 -67 -4 -20 -16 -80 -27 -132 -27 -120 -33 -184 -19 -207 6 -11 11 -13
11 -5 0 7 4 11 9 8 10 -7 0 -61 -18 -94 -7 -13 -11 -37 -9 -54 l3 -32 14 30
c7 16 17 36 22 44 4 8 39 71 77 140 38 69 89 170 112 225 59 140 76 170 118
217 l37 41 -2 84 c-2 60 1 83 9 83 7 0 36 10 64 21 60 25 104 21 154 -14 30
-21 31 -25 35 -108 5 -97 6 -96 -73 -95 -54 1 -56 -20 -7 -72 33 -35 35 -41
35 -103 0 -47 -4 -70 -15 -79 -8 -7 -15 -18 -15 -26 0 -7 -13 -29 -30 -47 -16
-19 -30 -45 -30 -57 0 -12 -14 -34 -30 -48 -17 -15 -30 -36 -30 -49 0 -12 -11
-39 -25 -59 -14 -20 -25 -43 -25 -50 0 -8 -9 -28 -20 -46 -11 -18 -20 -43 -20
-55 0 -13 -4 -23 -10 -23 -5 0 -10 -11 -10 -25 0 -14 -4 -33 -9 -43 -12 -22
-31 -104 -31 -135 0 -16 -7 -26 -19 -30 -12 -3 -21 -18 -26 -43 -3 -21 -15
-44 -26 -52 -11 -7 -19 -25 -19 -40 0 -43 -18 -93 -42 -119 -17 -18 -22 -35
-21 -66 1 -32 -5 -48 -24 -69 -14 -14 -25 -30 -24 -35 0 -4 -10 -7 -22 -5 -25
3 -57 -44 -57 -83 0 -13 -4 -27 -10 -30 -6 -3 -10 -15 -10 -26 0 -11 -7 -22
-15 -25 -8 -4 -15 -17 -15 -30 0 -14 -17 -48 -38 -77 -22 -29 -45 -70 -53 -91
-8 -22 -22 -41 -32 -44 -17 -4 -17 -5 0 -17 17 -13 17 -14 -2 -37 -11 -12 -25
-26 -32 -30 -6 -5 -9 -17 -6 -29 3 -11 1 -30 -5 -42 -6 -12 -15 -35 -20 -52
-5 -16 -14 -29 -19 -28 -5 1 -10 -3 -11 -10 -1 -20 -27 -84 -40 -100 -7 -8
-10 -21 -6 -30 4 -10 0 -15 -12 -14 -11 1 -24 -10 -32 -27 -10 -19 -17 -25
-22 -16 -12 19 -55 8 -55 -15 0 -15 7 -20 26 -20 14 0 32 -5 40 -11 13 -10 96
-39 111 -39 3 0 10 -3 14 -7 4 -5 17 -8 28 -8 25 -1 50 -18 59 -43 4 -10 15
-17 24 -15 12 2 21 -8 30 -32 9 -27 12 -30 12 -12 1 34 16 26 27 -15 5 -20 18
-41 29 -47 32 -18 35 -27 28 -93 -5 -53 -3 -63 10 -63 9 0 17 10 19 23 3 17 7
11 20 -26 15 -41 15 -52 3 -85 -7 -20 -14 -29 -14 -19 -1 9 -6 17 -12 17 -6 0
-9 -9 -6 -20 3 -14 0 -20 -10 -20 -20 0 -42 -29 -43 -55 -1 -15 -5 -12 -16 12
-15 34 -15 34 -96 18 -19 -3 -28 14 -28 53 0 70 -35 100 -47 42 -4 -23 -11
-30 -28 -30 -29 0 -45 20 -35 45 7 18 8 19 15 3 10 -24 18 -22 32 8 8 17 9 34
3 50 -10 24 -34 32 -45 14 -13 -21 -53 -11 -64 18 -10 26 -10 25 -5 -8 3 -19
11 -39 18 -45 18 -14 18 -75 0 -75 -8 0 -14 -7 -14 -15 0 -8 -6 -16 -12 -17
-7 0 -17 -2 -23 -3 -5 -2 -16 -3 -22 -4 -7 0 -13 -7 -13 -15 0 -11 -10 -13
-40 -9 -25 4 -40 2 -40 -5 0 -6 6 -12 12 -15 7 -2 10 -8 6 -12 -12 -13 -38 3
-38 24 0 14 -10 23 -35 30 -19 5 -42 16 -51 25 -8 9 -24 16 -34 16 -14 0 -20
9 -22 32 -3 29 -7 33 -36 35 -42 4 -72 20 -72 39 0 8 7 38 16 65 13 38 14 53
5 62 -6 6 -11 24 -11 39 0 15 -4 28 -8 28 -8 0 -32 48 -46 93 -3 9 -12 17 -21
17 -9 0 -15 9 -15 25 0 14 5 25 11 25 6 0 8 9 4 20 -4 12 -1 27 5 35 20 25
-43 42 -140 40 -60 -2 -90 1 -100 11 -20 17 -234 8 -227 -10 5 -12 -18 -38
-25 -30 -4 4 -4 -38 0 -58 3 -15 91 -8 153 12 73 22 92 14 60 -26 -27 -35 -27
-54 2 -55 24 -1 18 -4 -25 -13 -34 -8 -36 -28 -5 -53 35 -27 40 -52 17 -77
-11 -11 -27 -30 -35 -41 -13 -18 -17 -18 -27 -5 -8 9 -26 14 -46 12 -30 -3
-41 4 -94 57 -62 64 -68 67 -84 51 -5 -5 -60 -11 -122 -12 -96 -3 -112 -5
-112 -19 0 -28 -74 -41 -97 -18 -6 6 -44 12 -84 15 -101 6 -141 14 -160 30 -8
8 -30 17 -48 20 -49 10 -86 94 -40 94 11 0 32 13 47 29 26 28 81 61 101 61 6
0 13 -12 17 -27 9 -45 26 -83 35 -83 5 0 9 4 9 9 0 16 49 19 54 4 10 -24 26
-3 26 33 0 28 5 36 27 45 14 5 35 20 45 32 16 18 34 23 91 27 87 6 93 18 48
87 -17 26 -31 41 -31 35 0 -7 -9 -12 -20 -12 -16 0 -20 7 -20 38 0 20 5 44 10
52 6 10 4 20 -5 30 -8 9 -21 43 -28 75 -11 50 -18 61 -45 74 -37 19 -40 34
-12 58 25 21 28 88 5 97 -20 7 -22 106 -1 106 16 0 41 50 50 103 l7 37 -46 0
c-47 0 -61 14 -22 23 12 4 27 16 32 29 6 14 20 24 38 26 25 3 27 7 26 45 -1
37 -2 39 -8 13 -10 -46 -27 -42 -23 5 4 41 4 42 -21 35 -37 -9 -44 11 -51 147
-4 64 -11 127 -16 139 -7 18 -9 19 -9 6 -1 -10 -5 -18 -11 -18 -12 0 -13 27
-1 34 4 3 18 32 31 65 23 63 47 83 66 57 13 -19 54 -21 54 -3 0 9 3 8 9 -2 6
-9 11 12 16 60 6 60 5 74 -8 84 -9 6 -19 24 -22 41 -8 35 -20 66 -47 117 -11
21 -31 68 -44 104 -28 74 -26 98 13 171 26 48 118 142 139 142 11 0 24 21 24
41 0 16 -26 10 -45 -11 -11 -12 -28 -20 -39 -18 -17 2 -27 -11 -55 -72 -19
-41 -37 -77 -41 -80 -7 -5 -55 -122 -71 -170 -4 -14 -17 -50 -28 -80 -12 -30
-21 -56 -21 -57 0 -2 18 -3 40 -3 22 0 40 -4 40 -10 0 -5 -4 -10 -9 -10 -5 0
-11 -8 -14 -19 -3 -14 -11 -17 -31 -14 -14 3 -26 12 -26 20 0 8 -4 11 -10 8
-5 -3 -10 -35 -10 -69 0 -85 -17 -167 -38 -188 -16 -16 -18 -16 -41 3 -14 11
-24 30 -23 45 0 26 -1 26 -63 19 -50 -5 -64 -3 -75 10 -23 28 -51 39 -62 24
-7 -11 -13 -8 -31 12 -21 25 -70 41 -124 41 -17 0 -25 9 -34 37 -7 20 -14 30
-16 24 -6 -18 -21 -16 -41 3 -11 11 -27 15 -54 11 -27 -4 -38 -1 -38 8 0 14
-22 25 -51 25 -12 0 -23 10 -29 25 -7 19 -17 25 -39 25 -16 0 -31 6 -35 15 -8
23 -57 19 -63 -5 -3 -11 -9 -20 -14 -20 -5 0 -9 -9 -9 -20 0 -26 -7 -25 -59
10 -41 28 -45 29 -62 14 -24 -22 -69 -11 -69 17 0 11 -8 22 -17 25 -10 3 -26
10 -35 15 -10 5 -29 9 -43 9 -14 0 -33 9 -42 20 -17 20 -17 20 -40 -1 -12 -12
-28 -19 -35 -17 -9 4 -13 -5 -13 -31 0 -38 -17 -55 -24 -24 -5 28 -21 43 -47
43 -25 0 -49 32 -40 55 2 7 -4 15 -15 18 -19 5 -27 27 -9 27 18 0 10 29 -10
35 -11 3 -20 11 -20 17 0 6 -6 6 -15 -2 -12 -10 -18 -10 -29 -1 -8 7 -32 11
-53 9 -34 -3 -38 -6 -36 -28 l2 -25 -16 23 c-8 12 -26 22 -39 22 -31 0 -66
-38 -55 -59 5 -9 11 -29 12 -46 4 -28 2 -30 -31 -29 -19 0 -46 3 -60 7 -14 3
-37 8 -52 12 -31 6 -36 26 -13 45 19 16 9 33 -16 25 -27 -9 -24 11 6 37 25 22
33 52 16 62 -5 3 -14 -1 -21 -9 -7 -8 -25 -15 -41 -15 -15 0 -31 -5 -34 -10
-4 -6 -11 -7 -17 -4 -6 4 -7 9 0 13 5 3 17 21 26 39 16 32 16 32 -9 44 -21 9
-31 9 -47 -1 -18 -11 -22 -11 -30 3 -5 9 -15 16 -23 16 -25 0 -27 -21 -4 -46
l22 -24 -24 0 c-16 0 -37 13 -56 35 -25 27 -39 35 -66 35 -20 0 -38 6 -40 13
-4 8 -8 9 -14 1 -14 -19 -41 -24 -47 -8 -7 17 3 44 16 44 5 0 8 6 5 13 -2 7
-16 11 -35 9 -22 -2 -34 1 -38 12 -3 8 -20 18 -37 22 -18 4 -36 12 -42 19 -9
12 -30 17 -115 27 -14 2 -25 -2 -25 -9 0 -15 -5 -19 -37 -27 -27 -6 -28 -5
-28 33 0 48 -22 71 -42 43 -21 -30 -37 -34 -68 -20 -37 16 -39 28 -5 28 23 0
25 3 19 28 -4 15 -13 34 -21 42 -12 13 -13 13 -7 -2 4 -13 1 -18 -10 -18 -9 0
-21 -11 -26 -25 -6 -16 -15 -23 -24 -19 -18 7 -38 -28 -30 -50 5 -13 11 -10
34 14 29 31 40 25 32 -16 -3 -16 -9 -21 -21 -16 -9 3 0 -8 19 -26 22 -21 36
-28 41 -20 4 7 11 2 19 -12 13 -25 5 -35 -37 -46 -11 -3 -23 -14 -26 -25 -3
-12 -14 -19 -30 -19 -24 0 -24 2 -20 60 2 37 0 60 -7 60 -5 0 -10 -13 -10 -29
0 -17 -4 -33 -10 -36 -5 -3 -14 -20 -19 -38 l-9 -32 -1 33 c-1 36 -19 42 -40
13 -17 -23 -41 -17 -41 10 0 10 -6 19 -12 20 -7 1 -2 5 12 9 23 8 24 8 3 9
-48 2 -92 -36 -63 -54 20 -12 10 -25 -19 -25 -16 0 -31 6 -34 13 -4 10 -7 10
-18 0 -20 -19 -42 -16 -37 5 3 10 -1 23 -9 30 -11 10 -13 9 -13 -7 0 -34 -41
-32 -78 6 -7 7 -22 13 -33 13 -19 0 -19 -39 -19 -2590 l0 -2590 1075 0 c591 0
1075 3 1075 8 0 4 -4 24 -9 44 -5 22 -5 36 0 32 5 -3 14 6 20 20 9 19 19 24
43 24 17 -1 33 -5 36 -9 3 -5 16 -6 28 -3 19 6 21 11 15 50 -5 37 -3 44 11 44
9 0 16 -7 16 -15 0 -33 16 -13 17 23 4 62 15 96 40 116 15 11 23 26 20 36 -2
9 0 25 5 34 7 13 4 16 -17 16 -18 0 -25 5 -25 20 0 17 3 18 26 10 14 -6 27
-10 28 -10 2 0 20 21 40 47 20 25 36 43 36 38 0 -5 11 2 24 14 14 13 32 21 43
18 16 -4 15 -6 -5 -12 -35 -11 -26 -23 23 -31 49 -7 75 5 75 37 0 10 4 21 10
24 13 8 13 65 0 65 -5 0 -12 -11 -16 -24 -5 -22 -36 -41 -47 -29 -20 19 48 83
68 65 5 -4 5 2 0 13 -12 31 -11 47 2 52 9 3 13 -7 13 -31 0 -34 1 -35 20 -24
11 7 23 21 26 30 3 10 12 18 21 18 20 0 53 -38 53 -62 0 -21 15 -24 27 -5 4 8
16 16 26 20 11 4 17 17 17 37 0 17 4 29 8 26 4 -2 14 -1 22 4 7 5 21 3 31 -3
13 -8 24 -8 42 2 31 17 62 10 61 -12 -2 -21 9 -22 25 -3 14 17 51 9 51 -10 0
-8 7 -14 15 -14 18 0 20 16 3 23 -7 3 -2 6 12 6 17 1 34 -10 52 -31 21 -25 28
-29 28 -15 0 13 8 17 35 17 19 0 35 5 35 11 0 8 5 7 16 -2 8 -7 36 -14 62 -15
37 -2 131 -33 150 -49 2 -2 -4 -17 -12 -34 -9 -16 -16 -46 -16 -66 0 -22 -4
-34 -10 -30 -5 3 -10 16 -10 28 l0 21 -20 -20 c-18 -17 -19 -25 -10 -49 12
-31 3 -118 -11 -109 -5 3 -7 10 -4 15 4 5 1 9 -4 9 -6 0 -11 -4 -11 -10 0 -5
-11 -10 -24 -10 -26 0 -48 -21 -45 -42 1 -7 -3 -26 -10 -43 -8 -19 -9 -35 -3
-45 5 -8 7 -38 5 -65 -3 -28 -5 -75 -6 -105 -1 -30 -6 -61 -10 -67 -7 -10 864
-13 4342 -13 l4351 0 0 359 c0 278 -3 361 -12 365 -10 5 -10 7 0 12 6 3 12 12
12 20 0 16 -75 20 -85 4 -3 -6 -15 -10 -26 -10 -10 0 -19 -7 -19 -15 0 -8 -8
-15 -17 -14 -11 0 -13 3 -5 6 25 10 12 33 -18 33 -28 0 -30 2 -20 21 20 37 20
59 0 59 -10 0 -20 -5 -22 -11 -4 -13 -73 -32 -115 -31 -28 0 -33 -3 -33 -24 0
-13 -4 -24 -10 -24 -5 0 -10 6 -10 14 0 14 -82 46 -119 46 l-21 0 21 36 c22
41 20 49 -10 39 -14 -4 -21 -15 -21 -33 0 -46 -14 -58 -39 -33 -25 25 -26 34
-6 51 17 14 20 50 5 50 -5 0 -10 7 -10 15 0 23 -57 20 -70 -4 -7 -14 -6 -21 3
-25 6 -3 3 -5 -8 -3 -12 1 -21 11 -23 25 -4 26 -22 20 -22 -7 0 -10 -9 -26
-19 -35 -19 -17 -20 -17 -26 21 -11 64 -15 73 -39 79 -38 9 -110 -20 -116 -47
-5 -19 -16 -26 -51 -34 -25 -5 -58 -20 -74 -33 -22 -17 -36 -21 -59 -16 -52
11 -76 23 -76 37 0 12 8 12 50 1 28 -7 55 -16 60 -19 6 -3 10 5 10 18 0 14 -7
28 -16 31 -25 9 -64 7 -64 -4 0 -16 -20 -12 -47 10 -26 20 -63 19 -92 -4 -10
-8 -17 -5 -28 9 -12 18 -24 20 -101 17 -48 -1 -88 -7 -90 -12 -5 -13 -58 -13
-102 0 -19 6 -55 13 -79 16 -34 3 -51 12 -77 41 -19 20 -39 33 -47 30 -27 -10
-39 7 -26 37 16 34 1 53 -29 37 -34 -18 -62 -14 -62 9 0 11 -4 20 -10 20 -5 0
-10 -7 -10 -16 0 -12 -6 -15 -22 -10 -13 3 -26 6 -30 6 -5 0 -8 6 -8 14 0 23
62 27 86 5 26 -24 34 -24 34 1 0 11 6 20 13 21 6 0 -10 7 -37 14 -27 8 -53 18
-59 24 -6 6 -26 11 -44 11 -18 0 -33 5 -33 11 0 6 -13 -3 -29 -20 -16 -17 -34
-31 -40 -31 -6 0 -11 -5 -11 -10 0 -6 -12 -8 -27 -4 -46 10 -73 26 -73 46 0
10 -5 18 -10 18 -6 0 -10 -8 -8 -18 3 -20 -45 -30 -66 -13 -6 6 -21 8 -33 5
-11 -3 -26 1 -34 8 -8 8 -23 17 -34 20 -11 3 -28 9 -37 13 -12 5 -18 3 -18 -7
0 -18 -41 -38 -75 -38 -14 0 -25 5 -25 11 0 6 -7 9 -15 5 -8 -3 -15 0 -15 5 0
7 -10 5 -24 -5 -14 -9 -27 -12 -31 -7 -3 6 -19 16 -35 24 -25 13 -29 13 -34 0
-8 -20 -36 2 -36 28 0 23 -16 33 -24 14 -3 -8 -12 -15 -21 -15 -8 0 -15 -6
-15 -13 0 -7 -12 -14 -26 -15 -15 -1 -33 -7 -41 -13 -16 -14 -53 14 -53 41 0
10 -7 20 -15 23 -8 4 -17 27 -21 57 -4 28 -11 53 -15 56 -19 11 -8 34 16 34
27 0 32 9 14 27 -9 9 -6 23 11 55 12 23 24 61 26 83 1 22 8 78 15 125 11 77
14 176 9 270 -1 19 3 36 9 38 6 2 8 20 4 47 -8 60 9 75 81 75 31 0 56 -4 56
-10 0 -11 48 -3 66 11 6 5 13 6 17 3 8 -8 77 15 77 26 0 7 35 16 110 25 19 2
52 7 73 11 21 3 67 3 102 -1 55 -6 65 -10 65 -26 0 -12 7 -19 20 -19 11 0 29
-6 40 -12 15 -9 23 -10 28 -2 9 13 112 17 112 4 0 -12 63 -29 70 -20 3 4 28
11 56 15 40 5 55 3 67 -9 11 -12 17 -13 20 -3 3 7 6 4 6 -7 1 -14 6 -17 26
-12 18 5 35 0 58 -16 17 -13 33 -26 35 -30 5 -12 32 -10 32 2 0 6 9 10 20 10
21 0 28 -24 10 -35 -5 -3 -10 -15 -10 -26 0 -10 5 -19 10 -19 6 0 10 11 10 25
0 14 9 30 20 37 27 17 25 28 -5 28 -14 0 -25 5 -25 11 0 8 18 10 54 6 62 -6
76 -12 76 -33 0 -13 8 -15 38 -10 20 3 59 7 85 8 27 1 50 5 53 10 9 13 52 9
68 -7 8 -8 19 -15 25 -15 6 0 11 -3 11 -7 0 -16 56 -33 106 -33 38 0 53 -4 58
-16 4 -10 12 -14 23 -10 10 4 15 4 11 1 -16 -17 57 -60 112 -67 21 -2 26 2 28
25 3 27 4 27 68 26 51 -1 67 -5 74 -19 8 -16 22 -18 96 -16 47 1 88 -2 91 -7
3 -5 11 -6 19 -3 8 3 14 1 14 -4 0 -6 11 -10 24 -10 14 0 28 -5 31 -10 8 -12
45 -13 45 -1 0 5 24 11 53 14 28 3 81 11 115 18 52 10 65 10 72 -1 4 -7 12
-10 18 -6 6 3 15 -1 20 -10 7 -13 11 -12 26 10 19 29 38 33 56 11 11 -13 14
-12 26 11 12 22 14 417 14 2415 l0 2389 -5935 0 c-3322 0 -5935 -4 -5935 -9z
m4065 -755 c29 -14 56 -35 62 -49 13 -28 3 -87 -23 -137 -12 -23 -21 -66 -24
-121 -5 -68 -10 -91 -28 -114 -12 -15 -22 -35 -22 -44 0 -9 -8 -24 -18 -32
-20 -17 -69 -30 -74 -20 -4 9 -109 86 -138 101 -24 13 -25 12 -7 -7 17 -19 23
-43 11 -43 -19 0 -104 58 -120 81 -11 17 -31 30 -51 34 -18 3 -33 10 -33 14 0
8 22 31 103 104 20 19 42 49 48 66 6 17 15 31 20 31 5 0 9 6 9 14 0 33 97 115
120 101 4 -2 18 7 30 20 30 32 68 32 135 1z m3907 -265 c89 -32 159 -50 251
-66 89 -15 127 -28 127 -45 0 -5 10 -10 23 -12 19 -3 22 -9 22 -43 0 -28 -5
-41 -16 -43 -12 -2 -15 5 -12 38 2 22 0 40 -5 40 -4 0 -8 -29 -8 -65 -1 -36 2
-62 7 -59 5 3 9 12 9 20 0 8 5 14 10 14 17 0 11 -36 -10 -55 -11 -10 -19 -28
-19 -39 1 -17 2 -18 6 -3 2 9 11 17 20 17 11 0 13 -7 8 -32 -4 -18 -14 -42
-21 -53 -8 -11 -14 -28 -14 -38 0 -24 -29 -67 -46 -67 -8 0 -14 -4 -14 -9 0
-11 -80 -19 -86 -9 -3 4 -19 8 -35 8 -17 0 -44 8 -62 17 -18 9 -38 16 -44 15
-7 -2 -13 2 -13 8 0 5 -8 10 -17 10 -10 0 -44 20 -75 45 -53 41 -108 67 -108
50 0 -15 114 -118 179 -162 143 -96 162 -111 152 -118 -6 -3 -11 -1 -11 4 0
13 -65 14 -89 2 -13 -7 -34 0 -82 28 -70 41 -119 58 -119 41 0 -5 18 -27 40
-47 22 -21 40 -47 40 -58 0 -46 -205 -195 -268 -195 -12 0 -31 -4 -44 -9 -34
-13 -147 -31 -198 -31 -25 0 -58 0 -74 0 -16 0 -40 -9 -53 -20 l-25 -20 27
-10 c14 -5 30 -10 35 -10 5 0 16 -8 26 -17 13 -13 19 -14 22 -5 6 19 30 14 44
-8 7 -11 18 -20 24 -20 7 0 19 -11 28 -25 9 -14 45 -46 79 -71 34 -25 83 -68
109 -96 l46 -50 -104 -103 c-78 -78 -104 -110 -104 -129 0 -19 5 -26 20 -26
20 0 70 -43 70 -60 0 -6 -18 -10 -39 -10 -33 0 -46 -7 -76 -37 -25 -27 -34
-44 -30 -59 5 -23 -34 -64 -61 -64 -9 0 -41 -27 -71 -60 -31 -33 -61 -60 -66
-60 -6 0 -18 -6 -26 -14 -11 -10 -52 -17 -121 -22 -58 -4 -111 -11 -118 -17
-8 -6 -11 -31 -10 -74 l3 -64 -40 -14 c-68 -24 -173 -29 -232 -12 -78 23 -323
15 -385 -13 -40 -17 -52 -18 -109 -8 -35 6 -75 11 -89 10 -14 0 -34 5 -45 11
-11 6 -36 14 -55 18 -132 29 -163 39 -200 64 -23 16 -46 38 -50 50 -4 11 -18
30 -31 41 -26 24 -101 64 -119 64 -13 0 -57 48 -65 72 -3 9 1 33 9 52 20 48 7
90 -45 144 -19 19 -38 80 -32 100 3 6 -1 12 -9 12 -9 0 -9 3 -2 8 6 4 19 21
27 39 9 17 26 34 37 38 11 3 20 15 20 26 0 10 5 19 11 19 6 0 29 18 50 40 34
35 39 46 39 88 1 83 10 156 24 202 15 47 24 94 31 169 3 24 9 49 14 55 6 7 10
37 10 68 -1 68 4 78 39 78 15 0 41 9 57 20 17 11 43 20 58 20 16 0 36 4 46 10
14 7 23 4 39 -13 21 -22 22 -25 22 -52 0 -8 6 -15 13 -15 7 0 23 -13 35 -30
30 -40 60 -38 102 5 19 20 39 33 46 31 6 -2 32 16 57 40 26 24 51 44 57 44 5
0 20 15 32 34 20 31 83 80 147 113 13 7 38 26 57 42 32 29 152 91 225 116 20
7 87 38 150 68 155 74 187 87 207 87 10 0 22 4 28 9 5 5 55 23 112 40 57 17
109 34 115 38 25 16 248 41 374 42 107 1 142 -3 185 -18z m512 -106 c42 -8 86
-21 98 -30 13 -8 30 -15 39 -15 9 0 22 -7 29 -15 7 -8 21 -15 32 -15 27 0 154
-76 162 -97 6 -15 9 -15 16 -3 12 19 30 -28 30 -79 0 -20 6 -43 13 -50 10 -10
8 -15 -7 -27 -11 -8 -25 -14 -32 -14 -6 0 -14 -17 -18 -38 -5 -33 -9 -38 -33
-37 -24 0 -28 -5 -36 -44 l-9 -43 -46 6 c-134 20 -184 25 -253 26 -71 0 -77 2
-83 23 -15 57 5 161 46 240 17 33 19 50 13 113 -4 41 -11 74 -16 74 -4 0 -13
9 -19 20 -6 11 -9 20 -6 20 2 0 38 -7 80 -15z m-4779 -85 c11 -1 30 -6 43 -14
21 -11 22 -14 8 -25 -25 -21 -136 11 -136 40 0 11 43 17 55 7 5 -4 18 -8 30
-8z m-3245 -280 c0 -5 -7 -10 -15 -10 -8 0 -15 5 -15 10 0 6 7 10 15 10 8 0
15 -4 15 -10z m254 -22 c15 -25 -10 -49 -50 -46 -19 1 -34 4 -34 7 0 11 55 61
64 58 5 -2 14 -10 20 -19z m-84 -100 c0 -10 -4 -18 -10 -18 -5 0 -10 15 -10
33 0 24 3 28 10 17 5 -8 10 -23 10 -32z m7825 -232 c25 -15 45 -30 45 -34 0
-4 20 -13 44 -21 24 -7 54 -24 67 -37 12 -13 29 -24 36 -24 7 0 21 -16 30 -35
14 -29 14 -37 3 -50 -18 -22 -59 -11 -86 22 -17 21 -27 25 -54 21 -33 -5 -75
9 -187 64 -46 22 -54 47 -34 100 8 21 15 24 50 22 23 -1 61 -14 86 -28z m-563
-437 c59 -22 66 -33 35 -53 -24 -15 -102 24 -104 53 -2 26 -3 26 69 0z m188
-86 c16 -11 51 -18 97 -19 l72 -2 55 -56 c31 -31 56 -63 56 -71 0 -9 -4 -14
-9 -11 -5 3 -12 -1 -15 -9 -4 -11 -13 -14 -29 -10 -17 5 -26 2 -30 -9 -8 -20
-43 -21 -51 -1 -3 8 -12 15 -20 15 -8 0 -23 14 -33 30 -11 19 -25 30 -40 30
-13 0 -31 4 -41 9 -9 5 -38 17 -64 26 -45 16 -47 18 -42 48 10 57 12 60 42 52
15 -3 38 -14 52 -22z m517 -185 c-3 -7 -5 -2 -5 12 0 14 2 19 5 13 2 -7 2 -19
0 -25z m-567 -68 c22 -11 40 -25 40 -31 0 -8 -4 -8 -13 -1 -6 6 -28 12 -47 14
-24 2 -36 9 -38 21 -4 22 10 22 58 -3z m-127 -60 c54 -5 115 -14 135 -19 228
-59 231 -61 225 -108 -7 -47 -47 -84 -87 -78 -17 2 -34 4 -38 4 -5 1 -8 8 -8
16 0 19 -19 19 -39 1 -9 -8 -30 -17 -48 -21 -28 -6 -31 -4 -26 14 7 26 -5 27
-23 4 -13 -17 -13 -17 -14 0 0 12 -8 17 -30 17 -17 0 -39 9 -50 20 -14 14 -33
20 -64 20 -36 0 -47 5 -60 25 -10 14 -22 23 -28 19 -6 -4 -27 -7 -47 -6 -19 1
-38 -4 -42 -10 -11 -18 -49 20 -49 49 0 16 -6 23 -20 23 -11 0 -20 5 -20 11 0
6 6 9 13 6 6 -2 46 1 87 8 95 16 114 17 233 5z m-4599 -45 c3 -8 1 -15 -4 -15
-6 0 -10 7 -10 15 0 8 2 15 4 15 2 0 6 -7 10 -15z m5106 -100 c20 -24 6 -28
-15 -5 -10 11 -13 20 -8 20 6 0 16 -7 23 -15z m50 -152 c-5 -16 -11 -35 -13
-43 -3 -8 -6 4 -6 28 -1 30 3 42 13 42 12 0 13 -6 6 -27z m-688 -78 c4 -18 0
-26 -14 -31 -11 -3 -25 -1 -31 5 -8 8 -8 11 0 11 6 0 13 9 16 20 7 28 24 25
29 -5z m655 -17 c-3 -8 -6 -5 -6 6 -1 11 2 17 5 13 3 -3 4 -12 1 -19z m-5772
-667 c-9 -16 -25 -3 -18 15 4 10 9 12 15 6 6 -6 7 -15 3 -21z m25 -231 c-1
-10 -9 -6 -25 13 -14 15 -25 40 -25 55 1 26 2 25 25 -13 14 -22 25 -47 25 -55z
m2817 -52 c13 -10 38 -14 178 -23 50 -4 99 -10 110 -15 19 -9 66 -13 263 -26
50 -4 92 -11 92 -16 0 -5 5 -6 10 -3 6 4 35 1 65 -5 58 -12 81 -35 70 -70 -3
-10 -1 -21 4 -25 28 -17 81 -194 81 -269 0 -19 5 -47 12 -62 10 -22 10 -28 -5
-39 -9 -7 -17 -19 -17 -28 0 -17 -40 -30 -64 -21 -11 4 -19 -2 -26 -20 -5 -14
-14 -26 -20 -26 -5 0 -10 -6 -10 -13 0 -10 -14 -12 -54 -9 -51 3 -54 2 -61
-25 -6 -22 -9 -24 -12 -10 -3 13 -10 16 -21 11 -36 -15 -63 -16 -79 -3 -15 12
-16 12 -9 -6 15 -38 19 -95 7 -95 -6 0 -11 7 -11 15 0 8 -5 15 -11 15 -6 0 -9
-12 -7 -27 2 -20 9 -29 26 -31 23 -4 29 -16 12 -27 -6 -4 -18 -1 -26 6 -22 18
-30 2 -9 -21 21 -23 13 -39 -10 -20 -18 15 -19 14 -33 -25 l-10 -30 -1 35 c-1
39 -16 69 -28 57 -4 -4 -2 -22 5 -39 13 -35 3 -61 -28 -78 -16 -9 -18 -15 -10
-30 13 -24 13 -40 0 -40 -5 0 -10 7 -10 15 0 8 -11 25 -25 39 -31 31 -33 56
-4 56 32 0 18 23 -28 44 -33 16 -43 27 -48 52 -5 31 -21 44 -51 44 -8 0 -14
-7 -14 -15 0 -8 7 -15 15 -15 19 0 19 -14 0 -30 -12 -10 -16 -9 -21 4 -3 9
-12 16 -20 16 -8 0 -14 5 -14 10 0 6 -7 10 -15 10 -8 0 -15 -4 -15 -10 0 -5 7
-10 15 -10 8 0 15 -4 15 -10 0 -5 -9 -10 -20 -10 -13 0 -20 7 -20 19 0 29 -28
47 -51 33 -28 -18 -51 -15 -48 6 5 29 -12 64 -27 58 -17 -6 -34 51 -34 116 0
42 3 48 25 54 21 5 23 10 18 37 -3 18 -10 34 -15 35 -19 8 -68 68 -68 85 0 12
-8 17 -30 17 -20 0 -33 -6 -38 -17 -13 -32 -47 -26 -68 12 -10 19 -23 35 -28
35 -4 0 -26 20 -48 45 -27 30 -50 46 -74 51 -30 6 -49 24 -24 24 6 0 10 7 10
16 0 11 -6 15 -20 11 -12 -3 -20 0 -20 8 0 7 -3 27 -6 44 -5 24 -3 31 10 31
18 0 22 -15 6 -25 -15 -9 -2 -25 21 -25 10 0 19 6 19 14 0 8 10 22 21 30 12 8
22 25 23 38 1 22 36 41 36 19 0 -25 18 -9 25 22 l7 32 9 -30 c5 -18 5 -33 -1
-39 -18 -18 -12 -80 10 -93 16 -11 21 -10 30 6 5 11 10 36 10 55 0 23 5 36 13
36 8 0 19 21 26 53 l11 53 73 -4 c39 -2 77 -9 84 -14z m-427 2 c0 -5 -7 -10
-16 -10 -8 0 -12 5 -9 10 3 6 10 10 16 10 5 0 9 -4 9 -10z m-1353 -16 c-3 -3
-12 -4 -19 -1 -8 3 -5 6 6 6 11 1 17 -2 13 -5z m-82 -23 c3 -6 17 -6 35 -1 20
6 30 5 30 -2 0 -6 10 -8 25 -4 18 5 25 2 25 -9 0 -8 6 -15 13 -15 8 0 7 -4 -3
-10 -11 -7 -4 -10 27 -10 40 0 43 -2 52 -37 9 -32 8 -40 -5 -50 -16 -12 -16
-58 1 -110 5 -16 2 -23 -17 -29 -12 -5 -32 -9 -43 -9 -11 0 -21 -8 -23 -17 -2
-13 3 -18 18 -18 27 0 22 -21 -8 -35 -26 -12 -27 -18 -7 -35 18 -15 20 -60 3
-60 -7 0 -33 5 -58 11 -25 6 -69 10 -97 10 -50 0 -69 11 -40 23 6 3 -5 4 -25
3 -24 -1 -38 -6 -38 -14 0 -7 5 -13 11 -13 16 0 50 -41 43 -51 -3 -5 20 -9 50
-9 31 0 71 -7 90 -17 l35 -16 -76 -35 c-58 -27 -92 -35 -147 -38 -97 -5 -127
-13 -152 -40 -12 -13 -26 -24 -32 -24 -5 0 -12 -7 -16 -15 -3 -8 -13 -15 -22
-15 -13 0 -15 -7 -10 -34 6 -31 2 -38 -41 -81 -44 -43 -47 -47 -30 -59 14 -11
16 -19 7 -40 -13 -35 -24 -33 -16 4 5 25 2 30 -15 30 -11 0 -19 6 -17 13 1 6
-2 22 -6 35 -8 24 12 52 38 52 8 0 18 10 21 21 6 17 9 19 16 8 10 -16 12 -8 3
15 -9 22 -51 20 -76 -4 -12 -11 -30 -20 -40 -20 -26 0 -23 -42 6 -88 17 -26
23 -45 19 -65 -5 -25 -8 -27 -37 -21 -17 3 -33 9 -36 13 -3 3 -16 7 -30 8 -56
6 -68 14 -93 63 -18 35 -22 50 -13 50 20 0 44 32 29 37 -7 3 -13 13 -13 24 0
36 -47 18 -63 -23 -6 -17 -31 -23 -72 -18 -11 1 -42 2 -69 1 -27 -1 -54 3 -60
8 -22 18 -167 32 -178 17 -7 -10 -38 16 -38 33 0 5 -19 12 -42 14 -43 4 -43 4
7 5 28 1 61 9 73 18 17 11 65 18 185 25 89 5 198 13 242 18 44 5 103 6 130 4
59 -6 83 8 91 51 7 40 12 46 35 46 10 0 19 5 19 10 0 6 9 10 20 10 13 0 20 7
20 20 0 22 16 27 23 8 3 -10 9 -8 24 5 21 18 33 14 33 -12 0 -12 12 -16 55
-18 43 -1 55 1 55 13 0 8 9 34 20 56 11 23 19 42 17 44 -1 1 -18 5 -37 8 -19
3 -47 8 -62 12 -23 5 -28 3 -29 -12 0 -16 -2 -16 -11 4 -13 26 -40 29 -59 6
-8 -10 -22 -14 -40 -10 -15 3 -50 3 -78 -1 -47 -5 -50 -8 -45 -29 4 -16 0 -25
-15 -34 -12 -6 -19 -15 -16 -20 4 -6 8 -19 10 -31 4 -18 1 -20 -28 -13 -18 4
-62 7 -99 7 -38 0 -68 4 -68 8 0 5 7 9 15 9 8 0 15 5 15 10 0 6 -13 10 -30 10
-20 0 -30 5 -30 15 0 8 5 15 10 15 26 0 6 32 -29 46 -22 8 -42 22 -45 29 -3 8
-21 17 -40 21 -20 3 -36 10 -36 15 0 5 -9 9 -21 9 -18 0 -20 4 -15 25 4 17 2
25 -7 25 -21 0 -27 -11 -16 -29 7 -11 7 -25 0 -43 -9 -23 -17 -28 -45 -28 -19
0 -37 4 -41 10 -3 5 6 33 21 61 20 41 23 53 13 60 -21 12 -36 -7 -65 -82 -15
-38 -31 -69 -35 -69 -10 0 9 66 31 107 19 35 16 75 -6 94 -22 18 26 50 73 49
21 0 59 2 85 6 28 4 68 1 100 -7 29 -7 94 -14 143 -15 50 -1 108 -6 130 -11
54 -11 186 15 182 37 -1 10 11 17 38 23 22 5 58 18 81 28 23 10 49 19 58 19
10 0 28 13 42 29 24 29 40 34 126 39 15 1 29 -2 33 -7z m4349 -56 c-7 -16 -30
-20 -38 -6 -7 11 4 21 25 21 12 0 16 -5 13 -15z m-3594 -177 c0 -10 -4 -18 -9
-18 -5 0 -17 -7 -25 -16 -14 -13 -18 -14 -30 -1 -19 18 -2 37 32 37 19 0 22 4
17 23 -5 17 -4 19 4 7 6 -8 11 -23 11 -32z m-1926 -10 c-9 -14 -23 2 -17 18 4
12 8 13 14 3 4 -7 5 -17 3 -21z m1986 12 c0 -11 -7 -20 -15 -20 -17 0 -18 2
-9 24 9 23 24 20 24 -4z m470 -87 c-4 -51 -1 -55 26 -28 24 24 26 25 48 8 13
-10 23 -24 22 -33 -1 -12 15 -16 71 -20 74 -5 84 -9 91 -38 7 -29 12 -108 6
-94 -3 6 -11 12 -17 12 -22 0 -38 17 -31 33 3 9 10 15 14 12 4 -3 10 2 13 10
10 23 -26 26 -67 5 -43 -22 -60 -18 -51 11 4 11 2 19 -4 19 -6 0 -11 -6 -11
-14 0 -27 -39 -5 -45 25 -8 36 -21 37 -29 3 -7 -26 -7 -26 -25 -8 -12 13 -15
21 -7 26 7 5 4 8 -6 8 -10 0 -18 6 -18 14 0 7 -3 28 -6 45 -5 25 -3 31 11 31
12 0 16 -8 15 -27z m-480 -54 c0 -11 -4 -19 -10 -19 -13 0 -28 32 -23 48 7 18
33 -5 33 -29z m-220 -9 c0 -20 -5 -30 -15 -30 -10 0 -15 10 -15 30 0 20 5 30
15 30 10 0 15 -10 15 -30z m327 -92 c-3 -8 -6 -5 -6 6 -1 11 2 17 5 13 3 -3 4
-12 1 -19z m481 -52 c-7 -33 8 -57 22 -36 7 11 10 -5 10 -52 l0 -68 -35 0
c-19 0 -38 0 -42 -1 -5 0 -10 9 -13 19 -6 24 -42 72 -53 72 -5 0 -6 -10 -2
-22 6 -22 6 -22 -9 -4 -22 28 -20 43 12 95 2 4 66 17 101 20 9 1 12 -7 9 -23z
m4022 4 c0 -5 -9 -10 -20 -10 -11 0 -20 5 -20 10 0 6 9 10 20 10 11 0 20 -4
20 -10z m-3850 -50 c0 -5 -5 -10 -11 -10 -5 0 -7 5 -4 10 3 6 8 10 11 10 2 0
4 -4 4 -10z m-1548 -77 c10 -9 18 -21 18 -26 0 -14 -32 -36 -52 -37 -22 0 -88
-81 -88 -108 0 -39 -60 -114 -112 -141 -24 -12 -29 -11 -60 14 -38 30 -42 69
-7 78 25 7 35 35 21 58 -22 34 -12 99 14 99 8 0 14 7 14 15 0 10 11 15 33 16
17 0 64 11 102 24 86 29 94 29 117 8z m1209 -23 c14 0 19 -7 19 -26 0 -14 5
-34 10 -45 7 -12 7 -19 1 -19 -6 0 -21 -11 -35 -25 -32 -32 -50 -33 -40 -2 4
12 9 40 10 62 2 22 4 49 4 60 1 11 4 14 7 8 2 -7 13 -13 24 -13z m-2511 -24
c0 -3 -4 -8 -10 -11 -5 -3 -10 -1 -10 4 0 6 5 11 10 11 6 0 10 -2 10 -4z
m-110 -93 c0 -8 -13 -13 -35 -13 -41 0 -43 5 -13 37 21 23 23 23 35 7 7 -10
13 -24 13 -31z m2889 17 c12 0 21 -5 21 -11 0 -7 -10 -9 -27 -5 -16 4 -34 7
-40 8 -7 1 -13 7 -13 15 0 10 5 11 19 3 11 -5 29 -10 40 -10z m1036 10 c3 -5
1 -10 -4 -10 -6 0 -11 5 -11 10 0 6 2 10 4 10 3 0 8 -4 11 -10z m-1170 -20 c3
-5 1 -10 -4 -10 -6 0 -11 5 -11 10 0 6 2 10 4 10 3 0 8 -4 11 -10z m1105 -10
c0 -11 -4 -20 -10 -20 -5 0 -10 9 -10 20 0 11 5 20 10 20 6 0 10 -9 10 -20z
m36 -22 c-3 -13 -6 -26 -6 -30 0 -5 -4 -8 -10 -8 -5 0 -10 14 -10 30 0 21 5
30 16 30 12 0 15 -6 10 -22z m-16 -56 c37 3 39 2 58 -44 11 -27 16 -48 11 -48
-5 0 -11 11 -15 25 -5 21 -9 23 -25 14 -22 -11 -26 -68 -7 -87 9 -9 7 -12 -10
-12 -16 0 -22 6 -22 23 0 32 -14 49 -33 41 -15 -5 -17 3 -16 72 1 68 2 74 10
46 10 -32 12 -34 49 -30z m277 6 c-3 -8 -6 -5 -6 6 -1 11 2 17 5 13 3 -3 4
-12 1 -19z m-418 -15 c0 -5 -4 -17 -9 -28 -8 -18 -9 -17 -9 8 -1 15 4 27 9 27
6 0 10 -3 9 -7z m41 -39 c0 -8 -4 -12 -10 -9 -5 3 -10 10 -10 16 0 5 5 9 10 9
6 0 10 -7 10 -16z m-214 -48 c16 -16 19 -36 5 -36 -12 0 -41 29 -41 41 0 14
20 11 36 -5z m580 -23 c-10 -10 -19 5 -10 18 6 11 8 11 12 0 2 -7 1 -15 -2
-18z m-620 -21 c-10 -10 -29 15 -21 28 6 9 10 8 17 -4 6 -10 7 -20 4 -24z
m471 16 c-3 -8 -6 -5 -6 6 -1 11 2 17 5 13 3 -3 4 -12 1 -19z m40 -10 c-3 -7
-5 -2 -5 12 0 14 2 19 5 13 2 -7 2 -19 0 -25z m85 -3 c0 -5 -5 -11 -11 -13 -6
-2 -11 4 -11 13 0 9 5 15 11 13 6 -2 11 -8 11 -13z m-545 -53 c-26 -5 -31 3
-17 28 l12 22 12 -23 c10 -21 9 -24 -7 -27z m-91 13 c10 -24 -6 -38 -21 -18
-7 10 -11 21 -9 25 8 13 24 9 30 -7z m34 -25 c0 -5 -5 -10 -11 -10 -5 0 -7 5
-4 10 3 6 8 10 11 10 2 0 4 -4 4 -10z m9 -42 c7 -11 9 -23 5 -26 -4 -4 -9 -1
-11 6 -3 6 -18 12 -33 12 -26 0 -45 11 -36 21 14 13 64 4 75 -13z m801 -17 c0
-6 -4 -13 -10 -16 -5 -3 -10 1 -10 9 0 9 5 16 10 16 6 0 10 -4 10 -9z m-3034
-46 c6 -8 18 -15 25 -15 8 0 24 -7 36 -15 12 -8 28 -12 36 -9 20 7 29 -62 10
-78 -7 -6 -13 -19 -13 -30 0 -23 -28 -54 -38 -43 -4 4 -1 10 6 12 17 6 15 33
-2 33 -8 0 -16 -5 -18 -11 -3 -9 -24 -16 -54 -18 -12 -1 -20 -31 -31 -106 -6
-43 -20 -68 -34 -60 -4 3 -13 -3 -18 -14 -6 -10 -25 -21 -43 -24 -46 -8 -198
23 -198 40 0 8 -7 16 -15 19 -8 4 -15 17 -15 29 0 13 -4 27 -10 30 -5 3 -10
17 -10 31 0 13 -4 24 -10 24 -5 0 -10 -6 -10 -13 0 -15 -5 -18 -124 -72 -72
-33 -85 -36 -137 -30 -52 6 -58 5 -69 -14 -20 -39 -36 -25 -38 33 -1 29 -6 74
-12 100 -9 42 -8 51 11 77 11 16 30 34 42 41 34 18 101 21 154 5 56 -17 84 -9
109 27 16 26 44 35 44 16 0 -5 14 -10 30 -10 23 0 30 4 30 20 0 21 7 25 28 12
7 -5 10 -16 6 -25 -3 -9 -2 -17 4 -17 5 0 7 -10 5 -22 -5 -30 6 -45 40 -53 23
-6 27 -4 27 14 0 12 6 21 15 21 8 0 15 9 15 20 0 11 6 39 13 61 l12 42 95 -7
c68 -4 98 -10 106 -21z m3099 15 c4 -6 -5 -10 -19 -10 -14 0 -26 5 -26 10 0 6
9 10 19 10 11 0 23 -4 26 -10z m-4030 -29 c-6 -11 31 -25 44 -16 17 10 56 -5
70 -26 10 -17 9 -25 -4 -45 -8 -13 -18 -41 -20 -62 -9 -70 -20 -117 -27 -106
-4 5 -3 28 2 50 12 52 12 54 -4 54 -8 0 -20 -24 -30 -58 -18 -65 -28 -70 -85
-45 -23 11 -51 14 -86 10 -43 -4 -53 -2 -63 14 -7 10 -24 20 -40 20 -17 1 -20
3 -9 6 20 5 23 23 3 23 -8 0 -19 12 -24 28 l-10 27 -7 -27 c-9 -34 -13 -34
-46 -4 -20 18 -25 31 -22 50 3 14 11 26 18 26 7 0 15 7 19 15 10 28 93 52 221
64 44 4 86 9 93 9 7 1 11 -2 7 -7z m65 -290 c0 -10 -7 -22 -16 -25 -8 -3 -13
-2 -11 2 2 4 7 15 10 25 8 23 17 22 17 -2z m110 -72 c0 -5 -15 -9 -32 -9 -31
1 -32 2 -15 15 19 14 47 10 47 -6z m7060 1 c0 -21 -16 -26 -39 -11 -18 11 -5
31 20 31 12 0 19 -7 19 -20z m-7075 -36 c22 -9 1 -24 -33 -24 -19 0 -21 2 -10
15 15 16 20 17 43 9z m7786 -201 c10 -10 2 -43 -10 -43 -13 1 -85 46 -88 56
-4 13 83 2 98 -13z m706 -9 c-3 -3 -12 -4 -19 -1 -8 3 -5 6 6 6 11 1 17 -2 13
-5z m-3911 -99 c6 -19 9 -35 6 -35 -10 0 -31 36 -32 53 0 29 14 19 26 -18z
m3991 -41 c-3 -3 -12 -4 -19 -1 -8 3 -5 6 6 6 11 1 17 -2 13 -5z m-3812 -93
c10 -18 -15 -22 -37 -7 l-22 16 26 0 c15 0 29 -4 33 -9z m-4095 -31 c0 -5 -4
-10 -10 -10 -5 0 -10 5 -10 10 0 6 5 10 10 10 6 0 10 -4 10 -10z m-71 -144 c7
-8 8 -17 3 -20 -6 -3 -12 3 -15 14 -6 24 -4 25 12 6z m-1159 -46 c0 -5 -5 -10
-11 -10 -5 0 -7 5 -4 10 3 6 8 10 11 10 2 0 4 -4 4 -10z m1050 -110 c0 -5 -5
-10 -11 -10 -5 0 -7 5 -4 10 3 6 8 10 11 10 2 0 4 -4 4 -10z m-1060 -40 c0
-24 -4 -30 -21 -30 -13 0 -19 5 -15 13 3 6 9 20 12 30 10 27 24 20 24 -13z
m-70 -116 c0 -14 -4 -23 -10 -19 -5 3 -10 15 -10 26 0 10 5 19 10 19 6 0 10
-12 10 -26z m1106 -73 c1 -46 -2 -58 -12 -54 -15 6 -17 20 -8 76 10 56 20 45
20 -22z"/>
<path d="M3927 5803 c-4 -3 -7 -11 -7 -17 0 -6 5 -5 12 2 6 6 9 14 7 17 -3 3
-9 2 -12 -2z"/>
<path d="M7040 5424 c0 -11 8 -14 27 -12 39 4 42 28 4 28 -21 0 -31 -5 -31
-16z"/>
<path d="M6920 5115 c-13 -16 -3 -125 11 -125 5 0 9 7 9 16 0 9 9 23 20 32 18
15 19 21 10 49 -13 36 -34 48 -50 28z"/>
<path d="M6382 4874 c-7 -12 -5 -21 8 -34 27 -27 47 -30 70 -10 l22 19 -39 17
c-21 10 -41 20 -45 22 -3 2 -11 -4 -16 -14z"/>
<path d="M6550 4855 c-7 -8 -22 -15 -34 -15 -18 -1 -17 -3 8 -16 27 -15 30
-15 48 4 11 11 17 25 14 31 -10 15 -21 14 -36 -4z"/>
<path d="M6760 4790 c0 -5 5 -10 11 -10 5 0 7 5 4 10 -3 6 -8 10 -11 10 -2 0
-4 -4 -4 -10z"/>
<path d="M6988 4753 c6 -2 18 -2 25 0 6 3 1 5 -13 5 -14 0 -19 -2 -12 -5z"/>
<path d="M7025 4710 c-3 -5 -1 -10 4 -10 6 0 11 5 11 10 0 6 -2 10 -4 10 -3 0
-8 -4 -11 -10z"/>
<path d="M6175 4600 c-4 -6 -2 -17 5 -25 9 -10 7 -15 -9 -20 -21 -6 -33 -28
-25 -48 4 -10 14 -11 49 -3 39 9 42 12 30 26 -7 8 -15 28 -17 44 -3 31 -21 45
-33 26z"/>
<path d="M6108 4543 c7 -3 16 -2 19 1 4 3 -2 6 -13 5 -11 0 -14 -3 -6 -6z"/>
<path d="M6336 4348 c-9 -35 -7 -88 4 -88 5 0 14 8 19 18 6 9 11 11 11 5 0 -7
9 -13 20 -13 23 0 24 3 8 30 -7 10 -9 23 -4 27 4 4 12 0 17 -10 12 -20 29 -23
29 -4 0 26 -27 49 -62 53 -30 5 -36 2 -42 -18z"/>
<path d="M6480 4314 c0 -8 5 -12 10 -9 6 4 8 11 5 16 -9 14 -15 11 -15 -7z"/>
<path d="M6390 4215 c0 -11 -9 -29 -21 -38 -11 -10 -18 -21 -14 -25 4 -4 12 1
19 11 7 9 18 17 25 17 13 0 14 20 1 40 -8 12 -10 11 -10 -5z"/>
<path d="M6437 4213 c-15 -15 -6 -43 13 -43 11 0 20 6 20 14 0 17 -24 38 -33
29z"/>
<path d="M6510 4200 c0 -5 5 -10 10 -10 6 0 10 5 10 10 0 6 -4 10 -10 10 -5 0
-10 -4 -10 -10z"/>
<path d="M6400 4140 c0 -24 15 -27 24 -4 9 22 8 24 -9 24 -8 0 -15 -9 -15 -20z"/>
<path d="M6830 4090 c0 -5 5 -10 10 -10 6 0 10 5 10 10 0 6 -4 10 -10 10 -5 0
-10 -4 -10 -10z"/>
<path d="M8972 5370 c0 -19 2 -27 5 -17 2 9 2 25 0 35 -3 9 -5 1 -5 -18z"/>
<path d="M5472 2380 c0 -14 2 -19 5 -12 2 6 2 18 0 25 -3 6 -5 1 -5 -13z"/>
<path d="M5513 2385 c-3 -9 -3 -18 0 -21 9 -9 27 6 27 22 0 19 -19 18 -27 -1z"/>
<path d="M5425 2370 c3 -5 8 -10 11 -10 2 0 4 5 4 10 0 6 -5 10 -11 10 -5 0
-7 -4 -4 -10z"/>
<path d="M5665 2177 c-4 -10 -5 -21 -1 -24 10 -10 18 4 13 24 -4 17 -4 17 -12
0z"/>
<path d="M5600 2126 c0 -18 31 -29 44 -16 8 8 7 14 -4 20 -22 14 -40 12 -40
-4z"/>
<path d="M3142 2415 c-13 -7 -23 -16 -22 -20 1 -5 -12 -14 -29 -21 -17 -7 -31
-17 -31 -23 0 -5 -9 -7 -20 -4 -11 3 -20 0 -20 -6 0 -6 9 -11 20 -11 11 0 20
-4 20 -8 0 -4 8 -18 17 -29 l18 -22 11 37 c11 34 12 35 13 10 1 -25 21 -42 21
-18 0 6 9 10 20 10 11 0 20 6 20 13 0 8 4 7 10 -3 6 -10 10 -11 10 -2 0 19 -4
27 -12 25 -5 -2 -8 8 -8 22 0 18 5 25 19 25 16 0 31 18 31 36 0 9 -67 1 -88
-11z"/>
<path d="M3590 2406 c0 -9 7 -16 16 -16 17 0 14 22 -4 28 -7 2 -12 -3 -12 -12z"/>
<path d="M3605 2180 c3 -5 12 -7 20 -3 21 7 19 13 -6 13 -11 0 -18 -4 -14 -10z"/>
<path d="M3161 1924 c-11 -13 -11 -18 0 -24 10 -7 7 -13 -12 -29 -20 -18 -21
-20 -4 -14 29 9 55 39 55 63 0 24 -19 26 -39 4z"/>
<path d="M3120 1890 c0 -5 5 -10 10 -10 6 0 10 5 10 10 0 6 -4 10 -10 10 -5 0
-10 -4 -10 -10z"/>
<path d="M5092 2090 c0 -14 2 -19 5 -12 2 6 2 18 0 25 -3 6 -5 1 -5 -13z"/>
<path d="M3341 1336 c-9 -10 -9 -16 -1 -21 16 -10 31 7 21 23 -6 10 -10 10
-20 -2z"/>
<path d="M3348 1226 c-24 -18 -23 -36 2 -36 15 0 20 7 20 25 0 29 1 29 -22 11z"/>
<path d="M13 5503 c-15 -6 -17 -33 -3 -33 6 0 10 5 10 10 0 6 7 10 16 10 8 0
12 5 9 10 -7 11 -13 11 -32 3z"/>
<path d="M190 5472 c0 -14 5 -19 18 -15 15 4 17 -2 17 -43 -1 -33 -7 -50 -19
-60 -17 -12 -17 -13 8 -20 14 -3 37 -3 51 0 22 6 24 10 19 34 -4 15 -15 36
-24 47 -10 11 -20 31 -22 45 -4 32 -48 43 -48 12z"/>
<path d="M138 5473 c7 -3 16 -2 19 1 4 3 -2 6 -13 5 -11 0 -14 -3 -6 -6z"/>
<path d="M490 5414 c0 -14 3 -14 15 -4 8 7 15 14 15 16 0 2 -7 4 -15 4 -8 0
-15 -7 -15 -16z"/>
<path d="M120 5340 c0 -23 5 -30 19 -30 26 0 34 38 11 50 -27 15 -30 13 -30
-20z"/>
<path d="M340 5346 c0 -7 9 -16 20 -19 15 -4 20 0 20 14 0 12 -7 19 -20 19
-11 0 -20 -6 -20 -14z"/>
<path d="M1517 5084 c-11 -11 3 -24 25 -24 17 0 18 2 8 15 -13 16 -23 19 -33
9z"/>
<path d="M1520 5010 c0 -5 9 -10 21 -10 11 0 17 5 14 10 -3 6 -13 10 -21 10
-8 0 -14 -4 -14 -10z"/>
<path d="M4046 4754 c4 -22 7 -55 7 -74 l-2 -35 16 33 c18 38 9 102 -16 110
-11 4 -12 -3 -5 -34z"/>
<path d="M5146 4634 c-9 -24 -7 -54 4 -54 6 0 10 16 10 35 0 38 -4 44 -14 19z"/>
<path d="M4016 4582 c-2 -4 -7 -23 -11 -42 -5 -29 -2 -37 15 -48 12 -7 23 -12
24 -10 0 2 10 13 20 25 18 21 18 23 -4 52 -21 31 -35 38 -44 23z"/>
<path d="M3400 4389 c0 -5 5 -7 10 -4 6 3 10 8 10 11 0 2 -4 4 -10 4 -5 0 -10
-5 -10 -11z"/>
<path d="M3560 4191 c0 -5 5 -13 10 -16 6 -3 10 -2 10 4 0 5 -4 13 -10 16 -5
3 -10 2 -10 -4z"/>
<path d="M4817 4063 c-47 -24 -54 -43 -16 -43 26 0 24 -16 -3 -23 -18 -5 -19
-8 -8 -21 7 -9 9 -16 6 -16 -4 0 0 -7 8 -16 15 -14 17 -14 32 1 11 10 25 14
40 11 27 -7 38 9 53 73 7 31 6 43 -2 46 -44 13 -67 11 -110 -12z"/>
<path d="M3833 3985 c-3 -9 -3 -18 0 -21 9 -9 27 6 27 22 0 19 -19 18 -27 -1z"/>
<path d="M4178 3179 c-10 -5 -18 -21 -18 -34 0 -34 34 -33 56 1 15 22 15 27 3
35 -17 11 -20 11 -41 -2z"/>
<path d="M3600 3125 c0 -8 9 -15 20 -15 11 0 20 -6 20 -14 0 -20 -21 -31 -30
-16 -5 7 -9 2 -13 -17 -3 -15 -3 -31 0 -35 8 -14 41 11 47 37 4 14 13 25 21
25 8 0 15 9 15 19 0 15 8 21 33 24 17 2 -1 5 -40 5 -59 2 -73 -1 -73 -13z"/>
<path d="M3240 2950 c0 -5 5 -10 10 -10 6 0 10 5 10 10 0 6 -4 10 -10 10 -5 0
-10 -4 -10 -10z"/>
<path d="M4780 2781 c0 -6 5 -13 10 -16 6 -3 10 1 10 9 0 9 -4 16 -10 16 -5 0
-10 -4 -10 -9z"/>
<path d="M4673 2704 c-7 -20 8 -48 29 -52 22 -4 29 22 12 47 -18 25 -32 27
-41 5z"/>
<path d="M5090 2570 c0 -27 5 -50 10 -50 6 0 10 23 10 50 0 28 -4 50 -10 50
-5 0 -10 -22 -10 -50z"/>
<path d="M4621 2568 c-12 -33 -15 -77 -4 -48 3 8 14 23 25 34 22 24 23 32 4
39 -10 4 -18 -5 -25 -25z"/>
<path d="M4527 2576 c-4 -10 -5 -21 -2 -24 9 -9 17 6 13 25 -3 17 -4 17 -11
-1z"/>
<path d="M4550 2565 c0 -8 5 -15 10 -15 6 0 10 7 10 15 0 8 -4 15 -10 15 -5 0
-10 -7 -10 -15z"/>
<path d="M11803 1896 c4 -10 7 -24 7 -32 0 -8 7 -14 15 -14 8 0 15 5 15 10 0
6 -5 10 -10 10 -6 0 -10 7 -8 16 2 10 -3 19 -11 22 -10 3 -12 0 -8 -12z"/>
<path d="M11565 1820 c4 -6 11 -8 16 -5 14 9 11 15 -7 15 -8 0 -12 -5 -9 -10z"/>
<path d="M11873 1785 c-3 -9 -3 -19 1 -22 7 -7 36 16 36 28 0 15 -30 10 -37
-6z"/>
<path d="M10950 1100 c0 -5 5 -10 10 -10 6 0 10 5 10 10 0 6 -4 10 -10 10 -5
0 -10 -4 -10 -10z"/>
<path d="M10905 1070 c-3 -5 -1 -10 4 -10 6 0 11 5 11 10 0 6 -2 10 -4 10 -3
0 -8 -4 -11 -10z"/>
<path d="M10370 1050 c0 -5 7 -10 15 -10 8 0 15 5 15 10 0 6 -7 10 -15 10 -8
0 -15 -4 -15 -10z"/>
<path d="M10710 1051 c0 -5 3 -17 6 -26 5 -13 8 -14 15 -3 12 19 11 25 -6 32
-8 3 -15 1 -15 -3z"/>
<path d="M11045 990 c-3 -5 -2 -10 4 -10 5 0 11 -6 13 -14 2 -12 5 -12 16 0
10 11 8 15 -7 24 -13 7 -22 7 -26 0z"/>
<path d="M11637 874 c-9 -10 2 -24 19 -24 8 0 14 7 14 15 0 15 -21 21 -33 9z"/>
<path d="M2730 640 l-25 -8 28 -1 c15 -1 27 4 27 9 0 6 -1 10 -2 9 -2 -1 -14
-5 -28 -9z"/>
<path d="M2995 580 c-4 -6 -3 -16 3 -22 13 -13 23 4 13 21 -7 10 -10 10 -16 1z"/>
<path d="M3145 420 c3 -5 10 -10 16 -10 5 0 9 5 9 10 0 6 -7 10 -16 10 -8 0
-12 -4 -9 -10z"/>
<path d="M3265 359 c-9 -27 -3 -31 29 -23 26 6 26 7 10 25 -22 24 -31 24 -39
-2z"/>
<path d="M2980 291 c-10 -20 -4 -51 10 -51 36 0 52 34 28 58 -17 17 -26 15
-38 -7z"/>
<path d="M3260 165 c0 -8 2 -15 4 -15 2 0 6 7 10 15 3 8 1 15 -4 15 -6 0 -10
-7 -10 -15z"/>
<path d="M2168 35 c2 -14 6 -25 8 -25 2 0 4 11 4 25 0 14 -4 25 -9 25 -4 0 -6
-11 -3 -25z"/>
<path d="M2190 50 c0 -5 7 -10 15 -10 8 0 15 5 15 10 0 6 -7 10 -15 10 -8 0
-15 -4 -15 -10z"/>
</g>
</svg>
