<svg xmlns="http://www.w3.org/2000/svg" fill="none" height="32" viewBox="0 0 32 32" width="32"><g fill="#212121">
<path d="m6.82001 20.5749v3.8344c2.2923 2.8021 5.77729 4.5907 9.67999 4.5907 4.3242 0 8.1355-2.1957 10.3799-5.5329v-5.3737c-.7677 5.0428-5.1226 8.9066-10.3799 8.9066-4.3539 0-8.0889-2.65-9.67999-6.4251z"/>
<path d="m25.03 10.3758v-1.7222c-.0026-.39111.0624-.76663.1839-1.11562-2.2515-2.18955-5.3252-3.53798-8.7139-3.53798-3.0318 0-5.8116 1.07939-7.97587 2.87485.00184.02033.00332.04074.00443.06122l.00145.02697v2.70081c1.92569-2.243 4.78189-3.66385 7.96999-3.66385 3.5135 0 6.624 1.72572 8.53 4.3758z"/>
<path d="m24.5 16.5c0 4.4183-3.5817 8-8 8s-7.99998-3.5817-7.99998-8 3.58168-8 7.99998-8 8 3.5817 8 8zm-8 7c3.866 0 7-3.134 7-7s-3.134-7-7-7-6.99998 3.134-6.99998 7 3.13398 7 6.99998 7z"/>
<path d="m29.99 7.94003c0-.9-.73-1.62997-1.63-1.62997-1.3 0-2.34 1.04999-2.33 2.33999v5.54995c0 1.253.7256 2.3748 1.8499 2.8831v8.617c0 .52.42.94.94.94h.23c.52 0 .94-.42.94-.94z"/>
<path d="m6.81999 6.31005c-.38 0-.67999.30999-.67999.67999v2.69001c0 .19999-.16001.34995-.35001.34995-.2 0-.34999-.15996-.34999-.34995v-2.66001c0-.37-.29-.69999-.66-.70999-.39-.01-.71001.29999-.71001.67999v2.69001c0 .19999-.15999.34995-.34999.34995-.2 0-.35-.15996-.35-.34995v-2.66001c0-.37-.29001-.69999-.66001-.70999-.39-.01-.70999.29999-.70999.67999v4.57996c0 .9025.43726 1.7065 1.1088 2.2089.60119.3391.60119 1.8911.60119 1.8911v10.02c0 .52.42.94.94.94h.23c.52 0 .94-.42.94-.94v-10.02s0-1.4914.6012-1.8911c.67154-.5024 1.10881-1.3064 1.10881-2.2089v-4.57996c-.02-.37-.33001-.67999-.71001-.67999z"/></g>
</svg>